<svg xmlns="http://www.w3.org/2000/svg" viewBox="0 0 1079.16 580.45"><defs><style>.cls-1,.cls-3{fill:#4d4d4d;}.cls-2{fill:#4aa1e0;}.cls-3,.cls-4,.cls-5{fill-rule:evenodd;}.cls-5{fill:#333;}</style></defs><g id="레이어_2" data-name="레이어 2"><g id="레이어_1-2" data-name="레이어 1"><path d="M707.12,352c13.91,0,19.87,11.41,13.16,27.38L645,562.45c-3.72,9.63-10.68,10.9-20.12,6.84-8.19-3.55-10.68-9.88-6.7-19l68.55-168.83H605.29c-8.94,0-12.66-4.31-12.66-14.71s3.72-14.7,12.66-14.7Zm108.53,83.15c8.94,0,12.67,5.07,12.67,15.21,0,10.39-3.73,15.72-12.67,15.72H792.06V566.25c0,9.64-5.22,14.2-15.65,14.2s-15.64-4.56-15.64-14.2V357.87c0-9.37,5.21-14.19,15.64-14.19s15.65,4.82,15.65,14.19v77.32Z"/><path d="M930.4,488.68l51.41,60.84c5.46,6.34,4,12.42-1.74,18.76-8.94,9.63-15.4,8.11-21.11,1.27l-44.21-52.73-44.21,52.73c-5.71,6.84-12.17,8.36-21.11-1.27-5.71-6.34-7.2-12.42-1.73-18.76l51.41-60.84V380.94H858.62c-9.19,0-12.42-4.56-12.42-14.7,0-9.89,3.23-14.45,12.42-14.45H970.88c9.19,0,12.42,4.56,12.42,14.45,0,10.14-3.23,14.7-12.42,14.7H930.4Zm136.1-53.49c8.94,0,12.66,5.07,12.66,15.21,0,10.39-3.72,15.72-12.66,15.72h-23.6V566.25c0,9.64-5.21,14.2-15.64,14.2s-15.65-4.56-15.65-14.2V357.87c0-9.37,5.22-14.19,15.65-14.19s15.64,4.82,15.64,14.19v77.32Z"/><path d="M235.52,259.23v286.2c0,11.06-6.78,18.55-17.48,18.55s-17.49-7.49-17.49-18.55V457.64H149.16c-9.28,56.74-34.26,83.5-72.44,83.5C27.83,541.14,0,496.18,0,400.19s27.83-141,76.72-141c33.54,0,56.74,20.7,68.52,64.23h55.31V259.23c0-11.06,6.78-18.56,17.49-18.56S235.52,248.17,235.52,259.23ZM118.83,399.83c0-75.65-17.13-106.34-42.11-106.34C52.1,293.49,35,324.18,35,399.83S52.1,506.17,76.72,506.17C104.2,506.17,118.83,475.48,118.83,399.83Zm81.72,23.55V357.72H151.3a387.33,387.33,0,0,1,2.15,42.47c0,8.21-.36,15.7-.72,23.19Z"/><path d="M409.08,332.45H282.75c-10,0-16.77-6.07-16.77-16.41,0-10,6.78-16.06,16.77-16.06H409.08c10,0,16.77,6.06,16.77,16.06C425.85,326.38,419.07,332.45,409.08,332.45ZM345.92,434.87c-41.4,0-62.81-17.13-62.81-45.68s21.41-46,62.81-46,62.8,17.48,62.8,46S388,434.87,345.92,434.87ZM294.17,253.94c3.21-10.7,13.56-13.91,23.2-8.92,16.41,8.21,39.25,12.85,66,12.85,10,0,17.13,5.71,17.13,16.41s-7.85,16.42-17.84,16.42c-28.9,0-55.67-3.93-76-13.56C294.88,271.43,291,263.93,294.17,253.94ZM535.05,508c0,43.54-38.9,61.74-112,61.74S310.94,551.56,310.94,508s38.9-61.74,112.06-61.74S535.05,464.49,535.05,508ZM345.92,402c19.27,0,27.83-5.36,27.83-13.56,0-8.57-8.56-13.92-27.83-13.92s-27.84,5.35-27.84,13.92C318.08,396.68,326.65,402,345.92,402ZM500.08,507.67c0-18.21-26.05-27.13-77.08-27.13s-77.08,8.92-77.08,27.13,26,27.11,77.08,27.11S500.08,525.86,500.08,507.67Z"/><path d="M502.91,318.83v-59.6c0-11.06,6.78-18.56,17.49-18.56s17.49,7.5,17.49,18.56V433.38c0,11.06-6.79,18.55-17.49,18.55s-17.49-7.49-17.49-18.55v-80.3"/><path d="M474.61,414c0,11.06-6.78,18.19-17.49,18.19S439.64,425,439.64,414V260.86c0-11.07,6.78-18.2,17.48-18.2s17.49,7.13,17.49,18.2"/><path class="cls-1" d="M537.89,332.39v108c0,6.86-6.79,11.51-17.49,11.51s-17.49-4.65-17.49-11.51V362.37"/><path class="cls-1" d="M439.64,398.21l35-13.79V414c0,11.06-6.78,18.19-17.49,18.19S439.64,425,439.64,414"/><path class="cls-1" d="M612.25,168.47H582.52c-3.33,26.93-13,117-96.09,189.54a374,374,0,0,1-78.7,52.39c-2.88,3.45-20.79,12.47-27.22,16.17a67.07,67.07,0,0,1-26.58,8.11,65.14,65.14,0,0,0,11.82-1c4.15-.79,6.4-1.05,8.77-1.38-.2.05-.37.11-.57.15l.87-.19c2.16-.3,4.49-.67,8.5-1.54a191.11,191.11,0,0,0,23-6.58C451.07,411.32,501,390,517.7,374.58,607.42,291.44,611.9,191.8,612.25,168.47Z"/><path class="cls-2" d="M258.9,316.35l-.57.17.87-.22"/><polygon class="cls-3" points="535.61 103.66 659.35 0 584.41 147.01 535.61 103.66"/><polygon class="cls-4" points="624.96 146.13 584.35 147.66 659.35 0 624.96 146.13"/><polygon class="cls-5" points="629.97 166.1 624.96 146.13 659.35 0 629.97 166.1"/><polygon class="cls-3" points="629.97 166.1 688.72 171.29 659.35 0 629.97 166.1"/></g></g></svg>